<?xml version="1.0" encoding="UTF-8"?>
<svg version="1.1" xmlns="http://www.w3.org/2000/svg" width="360" height="360">
<path d="M0 0 C118.8 0 237.6 0 360 0 C360 118.8 360 237.6 360 360 C241.2 360 122.4 360 0 360 C0 241.2 0 122.4 0 0 Z " fill="#FEFEFE" transform="translate(0,0)"/>
<path d="M0 0 C4.88824302 2.28025896 4.88824302 2.28025896 10.0390625 3.8046875 C12.64844616 2.70229274 12.64844616 2.70229274 15.0390625 0.7421875 C27.43847773 -7.72488957 39.55471476 -9.82767891 54.14453125 -7.75390625 C64.53278647 -5.42424111 71.72636358 0.45549599 77.56640625 9.1796875 C81.51826036 16.22384124 82.59292399 21.37808589 82.5390625 29.4296875 C82.53406738 30.40518555 82.52907227 31.38068359 82.52392578 32.38574219 C82.32924478 40.47641626 80.90535906 46.61419417 77.0390625 53.8046875 C76.59304688 54.67996094 76.14703125 55.55523437 75.6875 56.45703125 C72.10531685 62.95098898 67.44314175 68.724853 62.0390625 73.8046875 C61.3790625 73.8046875 60.7190625 73.8046875 60.0390625 73.8046875 C60.20019531 74.71605469 60.36132812 75.62742187 60.52734375 76.56640625 C61.28460777 81.89942137 61.22323325 87.24044239 61.2265625 92.6171875 C61.23880859 93.64650391 61.25105469 94.67582031 61.26367188 95.73632812 C61.30637696 118.24190991 52.18240421 139.59295979 38.0390625 156.8046875 C36.99105469 158.10019531 36.99105469 158.10019531 35.921875 159.421875 C18.79558047 179.55938615 -8.25446437 192.94358577 -34.44287109 195.60986328 C-66.87459705 198.11912422 -97.57818016 190.83611501 -122.9609375 169.8046875 C-141.46963584 153.81173456 -154.9736737 131.30063508 -157.9609375 106.8046875 C-158.20220576 101.98786581 -158.19662899 97.18887279 -158.1484375 92.3671875 C-158.14779297 91.11486328 -158.14714844 89.86253906 -158.14648438 88.57226562 C-158.09812116 78.56108021 -158.09812116 78.56108021 -156.9609375 74.8046875 C-157.81945312 74.43730469 -157.81945312 74.43730469 -158.6953125 74.0625 C-169.50189608 68.06298291 -174.54215786 54.81153624 -179.16015625 43.99609375 C-180.33239896 39.32427767 -180.32948291 34.79117661 -180.3359375 29.9921875 C-180.36042969 29.04537109 -180.38492188 28.09855469 -180.41015625 27.12304688 C-180.45110197 17.20735765 -176.81196635 8.99241221 -169.9609375 1.8046875 C-161.69953098 -5.11216125 -153.75693161 -8.79141696 -142.9609375 -8.7578125 C-142.13932129 -8.75539551 -141.31770508 -8.75297852 -140.47119141 -8.75048828 C-129.10671894 -8.4154017 -118.65687434 -4.3006701 -109.7578125 2.80078125 C-108.04483654 3.97461162 -108.04483654 3.97461162 -106.19140625 3.671875 C-102.91400925 2.3976506 -99.72165562 0.95016523 -96.5234375 -0.5078125 C-65.44723044 -14.31123327 -30.88120338 -14.06987342 0 0 Z " fill="#CC6F31" transform="translate(228.9609375,87.1953125)"/>
<path d="M0 0 C4.72247974 3.77650571 7.66524753 6.91946096 9 13 C9.66 13 10.32 13 11 13 C15.84736138 23.95925182 16.01879031 34.68355076 12 46 C10.29036398 49.27231193 8.28862498 52.11127283 6 55 C5.278125 56.03125 4.55625 57.0625 3.8125 58.125 C-2.40129836 65.29171313 -12.340844 69.59373258 -21 73 C-21.79148437 73.32097656 -22.58296875 73.64195312 -23.3984375 73.97265625 C-41.46691343 80.09997853 -62.25125951 75.85743381 -79 68 C-81.1479502 66.77512125 -83.01762933 65.49968011 -85 64 C-85 63.34 -85 62.68 -85 62 C-85.5878125 61.74605469 -86.175625 61.49210937 -86.78125 61.23046875 C-93.63338078 57.43043143 -98.30390317 49.32902692 -101.08203125 42.23828125 C-103.85142685 32.46879633 -102.65893791 21.95727691 -98 13 C-96.22073575 10.10292708 -94.2413482 7.55219212 -92 5 C-91.52175781 4.41734375 -91.04351562 3.8346875 -90.55078125 3.234375 C-67.61157332 -22.4205578 -25.39395825 -18.61232138 0 0 Z " fill="#FBAC58" transform="translate(224,187)"/>
<path d="M0 0 C8.84092678 1.24475142 17.64395212 7.97620068 23 15 C24.4375 18.4375 24.4375 18.4375 25 21 C25.66 21 26.32 21 27 21 C31.84736138 31.95925182 32.01879031 42.68355076 28 54 C26.29036398 57.27231193 24.28862498 60.11127283 22 63 C21.278125 64.03125 20.55625 65.0625 19.8125 66.125 C15.15706182 71.53865287 8.07655884 76.01287132 1 77 C1 76.34 1 75.68 1 75 C-0.32 74.34 -1.64 73.68 -3 73 C-2.34 73 -1.68 73 -1 73 C-0.731875 72.360625 -0.46375 71.72125 -0.1875 71.0625 C1 69 1 69 4 68 C4 67.34 4 66.68 4 66 C4.66 66 5.32 66 6 66 C7.50930183 62.6136749 7.50930183 62.6136749 8 59 C8 57.68 8 56.36 8 55 C4.43516546 55.91193442 2.34568595 56.64471167 -0.25 59.3125 C-7.23050582 66.13435796 -16.45962645 69 -26 69 C-26 59.1 -26 49.2 -26 39 C-23.03 39 -20.06 39 -17 39 C-12.09783153 38.66576124 -10.24666801 36.58842254 -7 33 C-6.401875 32.443125 -5.80375 31.88625 -5.1875 31.3125 C-3.77636223 30.04781729 -3.77636223 30.04781729 -4 28 C-3.34 28 -2.68 28 -2 28 C-0.72432649 21.23893038 -1.51274415 15.68650564 -3 9 C-3.33 9.33 -3.66 9.66 -4 10 C-7 8 -7 8 -7.6875 5.875 C-7.790625 5.25625 -7.89375 4.6375 -8 4 C-7.34 4 -6.68 4 -6 4 C-5.67 3.01 -5.34 2.02 -5 1 C-4.34 1.33 -3.68 1.66 -3 2 C-3.33 2.66 -3.66 3.32 -4 4 C-0.2236068 4.2981424 -0.2236068 4.2981424 2 3 C1.34 2.01 0.68 1.02 0 0 Z " fill="#FDAC57" transform="translate(208,179)"/>
<path d="M0 0 C3.80130705 2.77392676 5.83961882 6.26885645 7.3125 10.6875 C7.89529343 16.63199301 6.87367996 20.9456593 3.3125 25.6875 C-2.92969763 31.56101386 -6.60422019 31.77917202 -15.6875 32.6875 C-15.6875 42.5875 -15.6875 52.4875 -15.6875 62.6875 C-0.53858284 59.82510237 -0.53858284 59.82510237 11.3125 50.6875 C13.3125 48.6875 13.3125 48.6875 15.9375 48.5625 C16.72125 48.60375 17.505 48.645 18.3125 48.6875 C18.75 50.75 18.75 50.75 18.3125 53.6875 C12.64044638 62.06888507 1.83616379 66.5035394 -7.6875 68.6875 C-23.92927396 70.27833547 -36.29846624 67.91807352 -49.2890625 57.80859375 C-51.6875 55.6875 -51.6875 55.6875 -53.6875 52.6875 C-53.3125 50.5 -53.3125 50.5 -52.6875 48.6875 C-48.72144074 49.2045163 -46.89531849 50.08661296 -44.125 52.9375 C-37.00596123 59.47786454 -29.12222538 61.50815933 -19.6875 62.6875 C-19.6875 52.7875 -19.6875 42.8875 -19.6875 32.6875 C-21.6675 32.6875 -23.6475 32.6875 -25.6875 32.6875 C-32.16009209 30.48779201 -36.87675054 27.34216048 -40.6875 21.6875 C-42.36982765 16.64051704 -42.87674607 11.4044337 -40.69921875 6.4296875 C-31.09630078 -7.79886138 -13.82851519 -6.7534609 0 0 Z " fill="#643414" transform="translate(197.6875,185.3125)"/>
<path d="M0 0 C0.82161621 0.00241699 1.64323242 0.00483398 2.48974609 0.00732422 C13.62448783 0.33563709 26.92914001 4.55889718 35 12.5625 C35 13.5525 35 14.5425 35 15.5625 C34.0925 15.995625 33.185 16.42875 32.25 16.875 C29.55635646 18.27362261 27.39818368 19.74318824 25 21.5625 C21.06037218 22.87570927 19.79626989 21.8582351 16.0625 20.1875 C8.20063619 16.69983303 0.16590688 14.70566389 -8.38671875 17.28125 C-13.33132871 19.61698956 -17.55284059 22.75990256 -20.109375 27.7109375 C-22.75422791 36.17910691 -22.08928792 47.29142383 -18.36328125 55.3125 C-16.80540835 57.88365986 -14.99104371 60.14444187 -13.125 62.5 C-10.9944489 65.38010532 -10.01816211 66.8532217 -9.92578125 70.4609375 C-10.73691666 75.08007501 -12.20677822 79.23858427 -14 83.5625 C-25.9994754 78.42758936 -31.40572119 63.98037122 -36.19921875 52.75390625 C-37.37146146 48.08209017 -37.36854541 43.54898911 -37.375 38.75 C-37.39949219 37.80318359 -37.42398438 36.85636719 -37.44921875 35.88085938 C-37.49016447 25.96517015 -33.85102885 17.75022471 -27 10.5625 C-18.73859348 3.64565125 -10.79599411 -0.03360446 0 0 Z " fill="#B25E25" transform="translate(86,78.4375)"/>
<path d="M0 0 C8.18211885 5.20903662 14.60754847 13.17477276 17.3515625 22.59375 C17.81707962 26.14390215 17.87549419 29.64126982 17.8515625 33.21875 C17.84656738 34.19424805 17.84157227 35.16974609 17.83642578 36.17480469 C17.64174478 44.26547876 16.21785906 50.40325667 12.3515625 57.59375 C11.68253906 58.90666016 11.68253906 58.90666016 11 60.24609375 C7.44291154 66.69455859 2.84725419 72.67379744 -2.6484375 77.59375 C-3.6384375 77.59375 -4.6284375 77.59375 -5.6484375 77.59375 C-6.12813873 75.84389646 -6.60717674 74.09386109 -7.0859375 72.34375 C-7.35277344 71.36921875 -7.61960937 70.3946875 -7.89453125 69.390625 C-8.14332031 68.46765625 -8.39210938 67.5446875 -8.6484375 66.59375 C-8.86628906 65.85640625 -9.08414063 65.1190625 -9.30859375 64.359375 C-9.6484375 62.59375 -9.6484375 62.59375 -8.6484375 60.59375 C-7.9884375 60.59375 -7.3284375 60.59375 -6.6484375 60.59375 C-6.2771875 59.5728125 -6.2771875 59.5728125 -5.8984375 58.53125 C-4.69558987 55.70455806 -3.26028798 53.14811699 -1.6484375 50.53515625 C1.17288964 45.0578141 1.69056945 40.12673085 1.6640625 34.09375 C1.68017578 33.36027344 1.69628906 32.62679687 1.71289062 31.87109375 C1.71724377 27.00428038 0.84495211 23.88616755 -1.6484375 19.59375 C-2.1434375 18.10875 -2.1434375 18.10875 -2.6484375 16.59375 C-4.34612984 15.49206016 -4.34612984 15.49206016 -6.6484375 14.59375 C-7.5765625 14.0575 -8.5046875 13.52125 -9.4609375 12.96875 C-16.18385999 10.16391782 -25.02214014 10.19620971 -31.75 12.7890625 C-33.55245203 13.71821383 -35.35210842 14.65281572 -37.1484375 15.59375 C-40.69336737 17.01172195 -43.11445303 16.66142914 -46.69921875 15.53515625 C-49.7289474 14.07190053 -51.63369103 12.25841468 -53.6484375 9.59375 C-53.6484375 8.60375 -53.6484375 7.61375 -53.6484375 6.59375 C-39.2971115 -5.50898114 -16.68957032 -8.86171876 0 0 Z " fill="#B25D24" transform="translate(293.6484375,83.40625)"/>
<path d="M0 0 C0.5465625 0.28617187 1.093125 0.57234375 1.65625 0.8671875 C1.09732285 4.45363669 -0.02753102 5.76826855 -2.84375 7.9921875 C-14.97416749 18.26634893 -23.38424676 31.19911985 -29.34375 45.8671875 C-35.59934748 43.30009566 -38.16576776 37.06608767 -41.21875 31.3671875 C-43.75314228 23.83989068 -44.01209486 12.54538381 -40.90625 5.1796875 C-31.73579424 -9.46665191 -13.20796245 -6.38384852 0 0 Z " fill="#FDAC58" transform="translate(106.34375,99.1328125)"/>
<path d="M0 0 C5.45275146 3.37100687 8.91905404 7.39339429 11.375 13.3125 C11.68773695 16.16375938 11.85217554 18.72141417 11.8125 21.5625 C11.80565186 22.31394287 11.79880371 23.06538574 11.79174805 23.83959961 C11.61488851 29.9872902 10.40642967 34.91459942 7.375 40.3125 C6.95476562 41.0859375 6.53453125 41.859375 6.1015625 42.65625 C2.92112445 48.13045852 2.92112445 48.13045852 -0.625 49.3125 C-2.25068217 46.22952588 -3.87542584 43.14605811 -5.5 40.0625 C-5.96019531 39.18980469 -6.42039062 38.31710938 -6.89453125 37.41796875 C-7.33925781 36.57363281 -7.78398437 35.72929687 -8.2421875 34.859375 C-8.65065918 34.08432617 -9.05913086 33.30927734 -9.47998047 32.51074219 C-10.55067749 30.45518653 -11.59513947 28.388765 -12.625 26.3125 C-13.285 26.3125 -13.945 26.3125 -14.625 26.3125 C-15.5021844 24.97917972 -16.37407198 23.64221126 -17.2265625 22.29296875 C-21.60405411 16.09356024 -27.17799123 10.58379881 -32.625 5.3125 C-31.39922398 4.51559351 -30.16918995 3.72523516 -28.9375 2.9375 C-27.91076172 2.27621094 -27.91076172 2.27621094 -26.86328125 1.6015625 C-19.18133016 -2.82259781 -8.20527455 -3.87514878 0 0 Z " fill="#FDAB57" transform="translate(284.625,95.6875)"/>
<path d="M0 0 C0.33 0 0.66 0 1 0 C1 9.57 1 19.14 1 29 C17.85094439 26.76294986 17.85094439 26.76294986 31 17 C33 15 33 15 35.625 14.875 C36.40875 14.91625 37.1925 14.9575 38 15 C38.4375 17.0625 38.4375 17.0625 38 20 C32.32794638 28.38138507 21.52366379 32.8160394 12 35 C-4.24177396 36.59083547 -16.61096624 34.23057352 -29.6015625 24.12109375 C-32 22 -32 22 -34 19 C-33.625 16.8125 -33.625 16.8125 -33 15 C-29.03394074 15.5170163 -27.20781849 16.39911296 -24.4375 19.25 C-17.31846123 25.79036454 -9.43472538 27.82065933 0 29 C0 19.43 0 9.86 0 0 Z " fill="#703913" transform="translate(178,219)"/>
<path d="M0 0 C2.69990662 1.79993774 4.5418865 3.083773 6 6 C6.41314256 10.6478538 5.78987316 13.24440152 3 17 C-0.20531421 18.6026571 -3.52218208 18.48207377 -7 18 C-10.34238038 15.85744848 -10.89167954 14.39717502 -11.9375 10.5625 C-12.00754154 6.57013213 -11.46465254 5.08081567 -9 2 C-5.48746854 -0.34168764 -4.13530644 -0.49623677 0 0 Z " fill="#0A0402" transform="translate(218,150)"/>
<path d="M0 0 C3.14674823 2.74331897 3.89954133 4.37492386 4.5625 8.5 C4 12 4 12 2 14.9375 C-1.31583691 17.21713788 -3.10902711 17.81667462 -7.05859375 17.546875 C-10.81838767 16.48777812 -12.15396038 14.27523158 -14 11 C-14.07144479 6.8562023 -13.68996523 4.84576383 -11.0625 1.625 C-7.12765109 -1.47518399 -4.87116005 -1.17579725 0 0 Z " fill="#040103" transform="translate(152,151)"/>
<path d="M0 0 C3.9204909 0.51427223 5.64692703 1.30562756 8.3125 4.1875 C12.78992822 8.39749031 17.78097923 10.05487084 23.5402832 11.86987305 C28.70845223 13.57039125 28.70845223 13.57039125 30.4765625 16.17578125 C30.64929688 16.77777344 30.82203125 17.37976563 31 18 C24.89904449 20.03365184 20.11954847 19.11807921 14.48046875 16.41015625 C8.75350279 13.15435355 2.68762372 9.53143558 -1 4 C-0.625 1.8125 -0.625 1.8125 0 0 Z " fill="#6B350F" transform="translate(145,234)"/>
<path d="M0 0 C0.33 0.66 0.66 1.32 1 2 C-0.60875 1.938125 -0.60875 1.938125 -2.25 1.875 C-6.49080684 1.99424319 -6.49080684 1.99424319 -10 4 C-12.09679403 6.69587803 -11.99510821 8.092944 -11.8125 11.5625 C-11.19835271 14.84222702 -11.19835271 14.84222702 -9.9375 16.9375 C-6.73507415 18.69366901 -3.50309274 18.62026592 0 18 C2.6469872 16.60314994 2.6469872 16.60314994 4 14 C4.33094958 10.22717474 4.19754817 7.59264452 3 4 C3.99 4.33 4.98 4.66 6 5 C7.24922743 8.7476823 7.89711141 12.13262056 7 16 C4.03094083 19.80672476 -0.04955475 21.28801981 -4.6875 22.125 C-8.0978585 22.3221976 -8.68673395 22.25703881 -11.4375 20 C-13.77132733 15.51905152 -16.20131742 10.0722291 -15 5 C-10.5606314 0.10185166 -6.35764433 -0.5576881 0 0 Z " fill="#B87143" transform="translate(151,149)"/>
<path d="M0 0 C-1.875 1.0625 -1.875 1.0625 -4 2 C-4.66 1.67 -5.32 1.34 -6 1 C-8.94874168 0.8748313 -11.86356546 0.81482017 -14.8125 0.8125 C-16.02389648 0.79413086 -16.02389648 0.79413086 -17.25976562 0.77539062 C-21.67474215 0.76454302 -24.95826156 1.04432011 -29 3 C-30.34614267 3.38353786 -31.7003853 3.7402502 -33.0625 4.0625 C-34.03896484 4.29646484 -34.03896484 4.29646484 -35.03515625 4.53515625 C-35.68355469 4.68855469 -36.33195313 4.84195313 -37 5 C-38.33374166 5.33169575 -39.66719215 5.66457174 -41 6 C-41 6.66 -41 7.32 -41 8 C-41.66 8 -42.32 8 -43 8 C-42.34 9.65 -41.68 11.3 -41 13 C-42.32 12.67 -43.64 12.34 -45 12 C-45 11.34 -45 10.68 -45 10 C-46.32 9.67 -47.64 9.34 -49 9 C-33.59825176 -1.32697866 -17.97947767 -5.13699362 0 0 Z " fill="#A96B41" transform="translate(289,81)"/>
<path d="M0 0 C1.1446875 0.12375 1.1446875 0.12375 2.3125 0.25 C2.75 2.3125 2.75 2.3125 2.3125 5.25 C-0.42747821 8.92652443 -3.22018565 11.78170818 -7.625 13.1875 C-8.6459375 13.2184375 -8.6459375 13.2184375 -9.6875 13.25 C-10.0175 11.6 -10.3475 9.95 -10.6875 8.25 C-9.924375 7.6725 -9.16125 7.095 -8.375 6.5 C-5.66596608 4.4467417 -5.66596608 4.4467417 -4.1875 2 C-2.6875 0.25 -2.6875 0.25 0 0 Z " fill="#6D380F" transform="translate(213.6875,233.75)"/>
<path d="M0 0 C1.98 0.99 1.98 0.99 4 2 C3.99476318 2.91700684 3.98952637 3.83401367 3.98413086 4.77880859 C3.96694563 8.22673184 3.95448076 11.67460863 3.94506836 15.12255859 C3.94008292 16.60628992 3.93329215 18.09001646 3.92456055 19.57373047 C3.87753603 27.77812616 3.9783645 35.84300472 5 44 C3 43 3 43 2.38916016 41.31689453 C0.65571472 32.89195777 0.55174156 24.43960159 0.375 15.875 C0.33673324 14.33070924 0.29767677 12.78643784 0.2578125 11.2421875 C0.16277533 7.49497087 0.07840713 3.74760583 0 0 Z " fill="#F4DDC7" transform="translate(68,160)"/>
<path d="M0 0 C0.66 0 1.32 0 2 0 C2 0.66 2 1.32 2 2 C2.99 2.33 3.98 2.66 5 3 C5.6875 5.0625 5.6875 5.0625 6 7 C7.65 7.33 9.3 7.66 11 8 C10.67 8.99 10.34 9.98 10 11 C10.99 11.33 11.98 11.66 13 12 C13 12.66 13 13.32 13 14 C13.99 14 14.98 14 16 14 C16 13.01 16 12.02 16 11 C17.32 10.67 18.64 10.34 20 10 C21.27351308 12.54702616 20.80191925 13.4282945 20.0625 16.125 C19.86785156 16.84945312 19.67320313 17.57390625 19.47265625 18.3203125 C19.31667969 18.87460938 19.16070312 19.42890625 19 20 C19.66 20 20.32 20 21 20 C20.67 20.66 20.34 21.32 20 22 C12.47930337 15.57322288 5.47660106 9.29788039 0 1 C0 0.67 0 0.34 0 0 Z " fill="#CA7641" transform="translate(89,237)"/>
<path d="M0 0 C4.79671389 0.48780141 8.54294469 1.15195267 13 3 C18.41542982 4.51056581 23.38457797 5.23895413 29 5 C29 6.32 29 7.64 29 9 C22.04228803 8.77555768 16.00259857 7.23875426 9.4375 5.0625 C8.22247803 4.66490479 8.22247803 4.66490479 6.98291016 4.25927734 C1.12815022 2.25630044 1.12815022 2.25630044 0 0 Z " fill="#C47C4B" transform="translate(135,273)"/>
<path d="M0 0 C0.33 0 0.66 0 1 0 C1 9.57 1 19.14 1 29 C3.31 29 5.62 29 8 29 C5.58913056 32.24220373 4.25781858 33.74914292 0.21875 34.5546875 C-2.52538928 34.78808079 -5.24676404 34.94696043 -8 35 C-5 33 -5 33 -2 33 C-2 32.34 -2 31.68 -2 31 C-3.32 30.67 -4.64 30.34 -6 30 C-4.02 29.67 -2.04 29.34 0 29 C0 19.43 0 9.86 0 0 Z " fill="#895124" transform="translate(178,219)"/>
<path d="M0 0 C1.32 0.33 2.64 0.66 4 1 C2.9171875 1.7734375 2.9171875 1.7734375 1.8125 2.5625 C-2.15832891 6.00388505 -5.50964041 9.10825324 -6.41796875 14.46484375 C-6.58369809 19.7129396 -5.86036999 23.47108086 -3 28 C-5.375 27.5625 -5.375 27.5625 -8 26 C-10.59111326 20.54313935 -10.20682459 14.84717117 -8.8359375 9.10546875 C-8 7 -8 7 -5.5625 4.9375 C-3.71860343 4.2629037 -1.86266778 3.62088926 0 3 C0 2.01 0 1.02 0 0 Z " fill="#F2AC61" transform="translate(163,182)"/>
<path d="M0 0 C-0.66 1.65 -1.32 3.3 -2 5 C-2.66 5 -3.32 5 -4 5 C-4 4.34 -4 3.68 -4 3 C-6.3431213 3.25561323 -8.67843403 3.59270772 -11 4 C-11.33 4.66 -11.66 5.32 -12 6 C-13.66666667 6.33333333 -15.33333333 6.66666667 -17 7 C-17.33 7.66 -17.66 8.32 -18 9 C-20.5625 9.625 -20.5625 9.625 -23 10 C-16.40125052 2.78261775 -9.96103116 -1.69149586 0 0 Z " fill="#AC6636" transform="translate(81,81)"/>
<path d="M0 0 C3.14674823 2.74331897 3.89954133 4.37492386 4.5625 8.5 C3.85498096 12.90234071 2.57491768 14.40005987 -1 17 C-3.3125 16.8125 -3.3125 16.8125 -5 16 C-4.01 15.29875 -3.02 14.5975 -2 13.875 C0.55013492 11.75290191 0.94516939 11.30461448 1.5625 7.875 C1.18921751 5.06591132 1.18921751 5.06591132 -0.125 3.1875 C-2.66676215 1.57771731 -5.0398108 1.32890991 -8 1 C-8 1.66 -8 2.32 -8 3 C-9.32 2.67 -10.64 2.34 -12 2 C-7.75834686 -1.21337359 -5.10471173 -1.48500705 0 0 Z " fill="#290D04" transform="translate(152,151)"/>
<path d="M0 0 C0.66 0 1.32 0 2 0 C3.15671982 7.00289002 3.02717275 13.80941335 2.81298828 20.87036133 C2.75007275 23.05996796 2.70869458 25.24933562 2.66796875 27.43945312 C2.62892467 28.84639143 2.58860328 30.25329499 2.546875 31.66015625 C2.51432617 32.92480713 2.48177734 34.18945801 2.44824219 35.49243164 C1.9696665 39.23736459 0.87522333 41.74896742 -1 45 C-2.01461459 41.8460843 -1.91692 39.9362428 -1.0703125 36.7578125 C0.51151463 29.51862718 0.21464317 22.23927105 0.125 14.875 C0.11494507 13.42708956 0.10582368 11.97917232 0.09765625 10.53125 C0.07585344 7.02068963 0.04146381 3.51038972 0 0 Z " fill="#F9E4D1" transform="translate(289,161)"/>
<path d="M0 0 C0.66 1.32 1.32 2.64 2 4 C1.46890625 4.45890625 0.9378125 4.9178125 0.390625 5.390625 C-3.18387909 8.49548621 -6.71310285 11.58668373 -10 15 C-12.5654594 17.5654594 -14.47686668 17.54046087 -18 18 C-13.96516717 13.83067274 -9.66648777 10.00845508 -5.3046875 6.18359375 C-3.24790604 4.23488047 -1.61057196 2.32111842 0 0 Z " fill="#FBF2E3" transform="translate(266,244)"/>
<path d="M0 0 C2.75194452 1.33911586 5.37075902 2.81139836 8 4.375 C13.39289049 7.4090636 19.09781193 9.21236605 25 11 C25 11.33 25 11.66 25 12 C23.22992286 12.08114106 21.45877902 12.13925505 19.6875 12.1875 C18.70136719 12.22230469 17.71523437 12.25710937 16.69921875 12.29296875 C13.57347578 11.95370576 12.98206123 11.31240476 11 9 C8.39388923 8.27802838 8.39388923 8.27802838 6 8 C6 7.01 6 6.02 6 5 C4.02 5 2.04 5 0 5 C0 3.35 0 1.7 0 0 Z " fill="#F2AC64" transform="translate(148,243)"/>
<path d="M0 0 C0.66 0.33 1.32 0.66 2 1 C-15.08591065 12 -15.08591065 12 -22 12 C-21.67 11.01 -21.34 10.02 -21 9 C-19.02 8.67 -17.04 8.34 -15 8 C-15 7.34 -15 6.68 -15 6 C-14.01 5.7525 -13.02 5.505 -12 5.25 C-8.27872138 4.2116799 -5.0666455 2.57929406 -1.69921875 0.70703125 C-0.85810547 0.35705078 -0.85810547 0.35705078 0 0 Z " fill="#BD7746" transform="translate(239,265)"/>
<path d="M0 0 C1.051875 -0.02126953 1.051875 -0.02126953 2.125 -0.04296875 C4 0.1875 4 0.1875 6 2.1875 C5.39671875 2.14109375 4.7934375 2.0946875 4.171875 2.046875 C-0.94248703 1.76431445 -0.94248703 1.76431445 -5.5 3.8125 C-7.73789709 7.35583706 -8.32234042 10.43765203 -7.5625 14.5625 C-7.376875 15.09875 -7.19125 15.635 -7 16.1875 C-8.32 15.8575 -9.64 15.5275 -11 15.1875 C-11.66964286 7.41964286 -11.66964286 7.41964286 -8.625 3.75 C-5.51259637 0.71170122 -4.19851859 0.03858933 0 0 Z " fill="#B97244" transform="translate(215,148.8125)"/>
<path d="M0 0 C0.97748402 3.04106139 1.29779422 5.03361322 0 8 C-4.33333333 12 -4.33333333 12 -7 12 C-7.33 12.99 -7.66 13.98 -8 15 C-10.875 15.625 -10.875 15.625 -14 16 C-14.66 15.34 -15.32 14.68 -16 14 C-15.45730469 13.81824219 -14.91460937 13.63648438 -14.35546875 13.44921875 C-13.64003906 13.19785156 -12.92460937 12.94648438 -12.1875 12.6875 C-11.12595703 12.32205078 -11.12595703 12.32205078 -10.04296875 11.94921875 C-7.85109073 10.93081271 -6.67201868 9.71034576 -5 8 C-4.34 8 -3.68 8 -3 8 C-1.92474806 5.34771188 -0.90543849 2.71631546 0 0 Z " fill="#EAA65C" transform="translate(204,203)"/>
<path d="M0 0 C2 1 2 1 2.796875 2.859375 C3 5 3 5 1.890625 6.703125 C1.34921875 7.21359375 0.8078125 7.7240625 0.25 8.25 C-0.28109375 8.77078125 -0.8121875 9.2915625 -1.359375 9.828125 C-3 11 -3 11 -6 11 C-6 8.69 -6 6.38 -6 4 C-5.67 4.66 -5.34 5.32 -5 6 C-4.01 6 -3.02 6 -2 6 C-2 5.34 -2 4.68 -2 4 C-1.34 4 -0.68 4 0 4 C0 2.68 0 1.36 0 0 Z " fill="#B06432" transform="translate(294,150)"/>
<path d="M0 0 C0 0.33 0 0.66 0 1 C-1.11375 1.309375 -2.2275 1.61875 -3.375 1.9375 C-6.7945155 2.82326483 -6.7945155 2.82326483 -9 4 C-10.70702735 4.06996014 -12.41668003 4.08440154 -14.125 4.0625 C-15.03507813 4.05347656 -15.94515625 4.04445313 -16.8828125 4.03515625 C-17.58148438 4.02355469 -18.28015625 4.01195313 -19 4 C-13.30941195 0.20627463 -6.73647948 -1.95003353 0 0 Z " fill="#C67F52" transform="translate(160,80)"/>
<path d="M0 0 C0.33 0 0.66 0 1 0 C1.13277344 1.25296875 1.26554687 2.5059375 1.40234375 3.796875 C1.58058291 5.44793246 1.7589764 7.09897327 1.9375 8.75 C2.02451172 9.575 2.11152344 10.4 2.20117188 11.25 C2.28818359 12.04921875 2.37519531 12.8484375 2.46484375 13.671875 C2.543396 14.4050293 2.62194824 15.13818359 2.70288086 15.89355469 C2.9973877 17.98147994 3.45117496 19.96552768 4 22 C3.34 22.33 2.68 22.66 2 23 C-1.42317006 15.05824546 -1.00415021 8.50503133 0 0 Z " fill="#AD683C" transform="translate(50,114)"/>
<path d="M0 0 C2.729 2.729 2.97507461 4.5513429 3.1875 8.375 C3.0109867 11.7875905 2.47474505 13.95833833 1 17 C0.67 17 0.34 17 0 17 C0 11.39 0 5.78 0 0 Z " fill="#763D10" transform="translate(202,191)"/>
<path d="M0 0 C-1.63400943 2.72334905 -2.77608658 3.89585423 -5.6875 5.25 C-9.61896683 6.14014343 -12.97708562 6.13872119 -17 6 C-17 5.67 -17 5.34 -17 5 C-13.535 4.505 -13.535 4.505 -10 4 C-9.67 3.01 -9.34 2.02 -9 1 C-6.03421164 -0.16513114 -3.15436364 -0.08762121 0 0 Z " fill="#65310D" transform="translate(191,248)"/>
<path d="M0 0 C0.66 0 1.32 0 2 0 C2 0.66 2 1.32 2 2 C2.99 2.33 3.98 2.66 5 3 C5.6875 5.0625 5.6875 5.0625 6 7 C7.65 7.33 9.3 7.66 11 8 C10.67 8.99 10.34 9.98 10 11 C10.99 11.33 11.98 11.66 13 12 C12.67 12.99 12.34 13.98 12 15 C7.40761071 10.64583263 3.49055596 6.28872116 0 1 C0 0.67 0 0.34 0 0 Z " fill="#BD794B" transform="translate(89,237)"/>
<path d="M0 0 C0.33 0.66 0.66 1.32 1 2 C0.67 2.99 0.34 3.98 0 5 C-0.78375 5.061875 -1.5675 5.12375 -2.375 5.1875 C-3.24125 5.455625 -4.1075 5.72375 -5 6 C-6.37466625 8.47636012 -6.37466625 8.47636012 -7 11 C-7.99 11 -8.98 11 -10 11 C-8.67367286 5.36310966 -4.53368235 3.06814317 0 0 Z " fill="#733811" transform="translate(167,183)"/>
<path d="M0 0 C1.65 0 3.3 0 5 0 C2.49987316 2.08343904 -0.14195318 3.71433305 -3 5.25 C-3.66 5.60578125 -4.32 5.9615625 -5 6.328125 C-7.43858414 7.14733686 -8.61946112 6.90520491 -11 6 C-12.75 4.4375 -12.75 4.4375 -14 3 C-13.113125 3.20625 -12.22625 3.4125 -11.3125 3.625 C-7.71900316 4.03181096 -6.21645126 3.47782896 -3 2 C-2.01 2 -1.02 2 0 2 C0 1.34 0 0.68 0 0 Z " fill="#FCEEDA" transform="translate(131,85)"/>
<path d="M0 0 C0.33 0 0.66 0 1 0 C1.05816623 3.41659491 1.09365195 6.83306205 1.125 10.25 C1.15013672 11.70212891 1.15013672 11.70212891 1.17578125 13.18359375 C1.18222656 14.11816406 1.18867188 15.05273438 1.1953125 16.015625 C1.20578613 16.87446289 1.21625977 17.73330078 1.22705078 18.61816406 C0.98293323 21.17903596 0.28990512 22.79511029 -1 25 C-1.66 24.67 -2.32 24.34 -3 24 C-2.5359375 22.515 -2.5359375 22.515 -2.0625 21 C-0.31795655 14.17029798 -0.32328707 7.01022481 0 0 Z " fill="#EFDAC2" transform="translate(311,112)"/>
<path d="M0 0 C4.00673568 0.73593104 5.47184815 2.5146743 8.0625 5.5625 C7.505625 5.418125 6.94875 5.27375 6.375 5.125 C3.94082241 4.53290275 1.53614935 3.96363233 -0.9375 3.5625 C-1.2675 3.8925 -1.5975 4.2225 -1.9375 4.5625 C-3.60367115 4.60313832 -5.27138095 4.605221 -6.9375 4.5625 C-4.71363628 1.82543696 -3.5149153 0.67306889 0 0 Z " fill="#311207" transform="translate(214.9375,149.4375)"/>
<path d="M0 0 C3.18005028 3.88672813 6.10554447 7.89952133 9 12 C8.01 12.33 7.02 12.66 6 13 C2.50586395 10.13301658 0.71163126 8.15849852 0.1875 3.6875 C0.125625 2.470625 0.06375 1.25375 0 0 Z " fill="#F9EADA" transform="translate(55,143)"/>
<path d="M0 0 C0.69480469 0.28617187 1.38960937 0.57234375 2.10546875 0.8671875 C5.1464265 2.05730592 8.21132475 3.10263453 11.3125 4.125 C12.38113281 4.47820312 13.44976562 4.83140625 14.55078125 5.1953125 C15.35902344 5.46085937 16.16726562 5.72640625 17 6 C17 6.33 17 6.66 17 7 C10.69732561 6.63223832 5.66748157 5.83374078 0 3 C0 2.01 0 1.02 0 0 Z " fill="#FCEDD8" transform="translate(133,273)"/>
<path d="M0 0 C2.31 0 4.62 0 7 0 C7 0.66 7 1.32 7 2 C7.928125 2.103125 8.85625 2.20625 9.8125 2.3125 C13.03254358 3.0070192 14.02579865 3.47740939 16 6 C15.67 6.66 15.34 7.32 15 8 C14.33613281 7.66226563 13.67226562 7.32453125 12.98828125 6.9765625 C12.10527344 6.53054687 11.22226563 6.08453125 10.3125 5.625 C9.44238281 5.18414062 8.57226562 4.74328125 7.67578125 4.2890625 C5.15227201 3.07335732 2.61262468 2.00739042 0 1 C0 0.67 0 0.34 0 0 Z " fill="#F8E9D4" transform="translate(100,80)"/>
<path d="M0 0 C2.64 0 5.28 0 8 0 C8 0.66 8 1.32 8 2 C8.66 2 9.32 2 10 2 C10 3.65 10 5.3 10 7 C8.51719804 6.21516341 7.0388502 5.42190666 5.5625 4.625 C4.73878906 4.18414062 3.91507812 3.74328125 3.06640625 3.2890625 C1 2 1 2 0 0 Z " fill="#C87742" transform="translate(110,259)"/>
<path d="M0 0 C0.66 0 1.32 0 2 0 C2 2.31 2 4.62 2 7 C1.360625 7.268125 0.72125 7.53625 0.0625 7.8125 C-2.33131686 8.88667752 -2.33131686 8.88667752 -3 12 C-2.49202991 7.6822542 -1.80317221 3.96697886 0 0 Z " fill="#B26F4D" transform="translate(52,98)"/>
<path d="M0 0 C3 1 3 1 4.1875 3.0625 C4.455625 3.701875 4.72375 4.34125 5 5 C5.99 4.67 6.98 4.34 8 4 C8.66 5.32 9.32 6.64 10 8 C9.01 8.33 8.02 8.66 7 9 C5.17578125 7.890625 5.17578125 7.890625 3.3125 6.25 C2.68988281 5.71890625 2.06726563 5.1878125 1.42578125 4.640625 C0 3 0 3 0 0 Z " fill="#EFAA60" transform="translate(150,233)"/>
<path d="M0 0 C0.99 0.33 1.98 0.66 3 1 C2.65120368 4.25543229 1.97866739 5.01873107 -0.5625 7.25 C-1.7690625 8.11625 -1.7690625 8.11625 -3 9 C-3.33 7.35 -3.66 5.7 -4 4 C-2.68 4 -1.36 4 0 4 C-0.33 3.01 -0.66 2.02 -1 1 C-0.67 0.67 -0.34 0.34 0 0 Z " fill="#C67D48" transform="translate(261,244)"/>
<path d="M0 0 C0.99 0 1.98 0 3 0 C3 1.65 3 3.3 3 5 C3.99 5.33 4.98 5.66 6 6 C7.25 8.375 7.25 8.375 8 11 C7.67 11.99 7.34 12.98 7 14 C6.01780373 12.23084525 5.03934641 10.45961431 4.0625 8.6875 C3.51722656 7.70136719 2.97195312 6.71523437 2.41015625 5.69921875 C1 3 1 3 0 0 Z " fill="#BD7849" transform="translate(78,218)"/>
<path d="M0 0 C2.31 0 4.62 0 7 0 C6.25 2.4375 6.25 2.4375 5 5 C2.875 5.8125 2.875 5.8125 1 6 C1.33 4.68 1.66 3.36 2 2 C1.34 2 0.68 2 0 2 C0 1.34 0 0.68 0 0 Z " fill="#1B0802" transform="translate(216,162)"/>
<path d="M0 0 C0.66 0 1.32 0 2 0 C2 0.66 2 1.32 2 2 C2.99 2 3.98 2 5 2 C4.67 4.64 4.34 7.28 4 10 C2 7 2 7 2 4 C1.34 4 0.68 4 0 4 C-0.33 3.01 -0.66 2.02 -1 1 C-0.67 0.67 -0.34 0.34 0 0 Z " fill="#B65B1C" transform="translate(68,152)"/>
<path d="M0 0 C4.95 1.98 4.95 1.98 10 4 C10 4.33 10 4.66 10 5 C8.02 5 6.04 5 4 5 C3.67 4.34 3.34 3.68 3 3 C2.01 2.67 1.02 2.34 0 2 C0 1.34 0 0.68 0 0 Z M1 5 C1.99 5 2.98 5 4 5 C4 5.99 4 6.98 4 8 C3.01 8 2.02 8 1 8 C1 7.01 1 6.02 1 5 Z " fill="#C17642" transform="translate(223,85)"/>
<path d="M0 0 C0.33 0.99 0.66 1.98 1 3 C-1.80804268 5.96404505 -4.18315774 8.44499019 -8 10 C-7.8125 8.125 -7.8125 8.125 -7 6 C-4.4375 4.75 -4.4375 4.75 -2 4 C-2 3.34 -2 2.68 -2 2 C-1.34 2 -0.68 2 0 2 C0 1.34 0 0.68 0 0 Z " fill="#ECA55E" transform="translate(209,233)"/>
<path d="M0 0 C0 0.66 0 1.32 0 2 C-0.66 2 -1.32 2 -2 2 C-1.34 3.65 -0.68 5.3 0 7 C-1.32 6.67 -2.64 6.34 -4 6 C-4 5.34 -4 4.68 -4 4 C-5.32 3.67 -6.64 3.34 -8 3 C-3.375 0 -3.375 0 0 0 Z " fill="#AB6533" transform="translate(248,87)"/>
<path d="M0 0 C-3.20336822 2.83374881 -5.78087253 3.5205537 -10 4 C-10 3.01 -10 2.02 -10 1 C-6.78548731 -0.60725635 -3.56387464 -0.05748185 0 0 Z " fill="#703918" transform="translate(168,246)"/>
<path d="M0 0 C0.66 0.33 1.32 0.66 2 1 C0.7260411 3.03833424 -0.61061923 5.03852126 -2 7 C-2.66 7 -3.32 7 -4 7 C-4 7.66 -4 8.32 -4 9 C-5.32 8.67 -6.64 8.34 -8 8 C-5.36 5.36 -2.72 2.72 0 0 Z " fill="#F1AD68" transform="translate(216,238)"/>
<path d="M0 0 C0.99 0.66 1.98 1.32 3 2 C2.01 2.33 1.02 2.66 0 3 C0.66 3.33 1.32 3.66 2 4 C1.1875 5.9375 1.1875 5.9375 0 8 C-0.99 8.33 -1.98 8.66 -3 9 C-3.33 8.01 -3.66 7.02 -4 6 C-2.0625 2.8125 -2.0625 2.8125 0 0 Z " fill="#B06633" transform="translate(57,91)"/>
<path d="M0 0 C0.33 0 0.66 0 1 0 C1.125 7.625 1.125 7.625 0 11 C-0.66 11 -1.32 11 -2 11 C-2 11.99 -2 12.98 -2 14 C-2.66 14 -3.32 14 -4 14 C-3.79503906 13.32453125 -3.59007812 12.6490625 -3.37890625 11.953125 C-3.10949219 11.06109375 -2.84007812 10.1690625 -2.5625 9.25 C-2.16224609 7.92742187 -2.16224609 7.92742187 -1.75390625 6.578125 C-1.11531506 4.39434165 -0.53224167 2.21164502 0 0 Z " fill="#F8E6D4" transform="translate(286,206)"/>
<path d="M0 0 C0.33 0 0.66 0 1 0 C1.12117187 0.68707031 1.24234375 1.37414062 1.3671875 2.08203125 C1.53476563 2.98308594 1.70234375 3.88414062 1.875 4.8125 C2.03742188 5.70582031 2.19984375 6.59914062 2.3671875 7.51953125 C2.91188449 10.22727846 2.91188449 10.22727846 5 13 C2.5625 12.3125 2.5625 12.3125 0 11 C-1.48143173 7.19060412 -0.82214706 3.92803595 0 0 Z " fill="#E29E58" transform="translate(155,197)"/>
<path d="M0 0 C4.3177458 0.50797009 8.03302114 1.19682779 12 3 C11.01 4.485 11.01 4.485 10 6 C8.68 5.67 7.36 5.34 6 5 C6 4.34 6 3.68 6 3 C4.02 2.34 2.04 1.68 0 1 C0 0.67 0 0.34 0 0 Z " fill="#A66337" transform="translate(98,81)"/>
<path d="M0 0 C3.63 0.33 7.26 0.66 11 1 C8.04929881 2.96713413 6.46418389 3.65358161 3 4 C2.01 3.34 1.02 2.68 0 2 C0 1.34 0 0.68 0 0 Z " fill="#C47947" transform="translate(205,276)"/>
<path d="M0 0 C6.0546875 -0.1953125 6.0546875 -0.1953125 8 0 C8.66 0.66 9.32 1.32 10 2 C9.67 2.99 9.34 3.98 9 5 C5.54074837 3.7508258 2.85306797 2.32472205 0 0 Z " fill="#C17745" transform="translate(120,266)"/>
<path d="M0 0 C2.72647685 2.35468455 3.98756342 4.5408417 5 8 C4.546875 10.16015625 4.546875 10.16015625 4 12 C3.32332002 10.75539217 2.65905281 9.50403104 2 8.25 C1.62875 7.55390625 1.2575 6.8578125 0.875 6.140625 C0 4 0 4 0 0 Z " fill="#A96B4A" transform="translate(306,98)"/>
<path d="M0 0 C2.95409701 1.37154504 5.44008376 2.98863724 8 5 C5.36 5 2.72 5 0 5 C0 3.35 0 1.7 0 0 Z " fill="#E9A560" transform="translate(148,243)"/>
<path d="M0 0 C3.28788824 3.11016455 5.83735988 6.01618925 8 10 C6.25 9.875 6.25 9.875 4 9 C0 3.88888889 0 3.88888889 0 0 Z " fill="#FCEEDC" transform="translate(89,238)"/>
<path d="M0 0 C0 0.99 0 1.98 0 3 C-1.98 3 -3.96 3 -6 3 C-6.33 4.32 -6.66 5.64 -7 7 C-7 5.02 -7 3.04 -7 1 C-4 0 -4 0 0 0 Z " fill="#F7B160" transform="translate(190,218)"/>
<path d="M0 0 C1.65 0 3.3 0 5 0 C3.35 2.64 1.7 5.28 0 8 C-0.66 6.68 -1.32 5.36 -2 4 C-1.125 1.75 -1.125 1.75 0 0 Z " fill="#F9F3E4" transform="translate(55,88)"/>
<path d="M0 0 C1.65 0 3.3 0 5 0 C1.25 5.875 1.25 5.875 -1 7 C-0.67 4.69 -0.34 2.38 0 0 Z " fill="#C27643" transform="translate(269,234)"/>
<path d="M0 0 C0.33 1.32 0.66 2.64 1 4 C1.66 4 2.32 4 3 4 C4.32 6.31 5.64 8.62 7 11 C3.64189605 9.61043975 1.81413448 8.17473533 0 5 C-0.1875 2.25 -0.1875 2.25 0 0 Z " fill="#391204" transform="translate(138,157)"/>
<path d="M0 0 C0.66 0.99 1.32 1.98 2 3 C0.35 4.32 -1.3 5.64 -3 7 C-3.33 6.01 -3.66 5.02 -4 4 C-2.68 2.68 -1.36 1.36 0 0 Z " fill="#C57644" transform="translate(253,253)"/>
<path d="M0 0 C2.31 0 4.62 0 7 0 C5.25 2 5.25 2 3 4 C1.68 4 0.36 4 -1 4 C-0.67 2.68 -0.34 1.36 0 0 Z " fill="#663A1B" transform="translate(179,248)"/>
<path d="M0 0 C1.65 0 3.3 0 5 0 C3.71937515 1.7074998 2.38232443 3.37373596 1 5 C0.34 5 -0.32 5 -1 5 C-0.67 3.35 -0.34 1.7 0 0 Z " fill="#FAB24E" transform="translate(191,218)"/>
<path d="M0 0 C2.475 0.495 2.475 0.495 5 1 C5.33 2.98 5.66 4.96 6 7 C3.95880212 5.38405168 1.95927063 3.7143618 0 2 C0 1.34 0 0.68 0 0 Z " fill="#AA6D45" transform="translate(65,155)"/>
<path d="M0 0 C1 4 1 4 0.3125 6.1875 C-1 8 -1 8 -5 9 C-3.35 6.03 -1.7 3.06 0 0 Z " fill="#FAE9D9" transform="translate(279,225)"/>
<path d="M0 0 C1.45922693 0.11409593 2.91740598 0.24165544 4.375 0.375 C5.59316406 0.47941406 5.59316406 0.47941406 6.8359375 0.5859375 C9 1 9 1 11 3 C8.83032311 3.95465783 7.43671207 4.14401212 5.17578125 3.3984375 C3.4315257 2.64129615 1.71372869 1.82390802 0 1 C0 0.67 0 0.34 0 0 Z " fill="#6F360B" transform="translate(165,214)"/>
<path d="M0 0 C0.66 0 1.32 0 2 0 C1.67 2.64 1.34 5.28 1 8 C0.34 8 -0.32 8 -1 8 C-1.04241723 5.66705225 -1.04092937 3.33297433 -1 1 C-0.67 0.67 -0.34 0.34 0 0 Z " fill="#BD7542" transform="translate(285,202)"/>
<path d="M0 0 C0.99 0.33 1.98 0.66 3 1 C3 3.64 3 6.28 3 9 C2.67 8.01 2.34 7.02 2 6 C1.34 6 0.68 6 0 6 C0 4.02 0 2.04 0 0 Z " fill="#B75A1D" transform="translate(306,106)"/>
<path d="M0 0 C1.32 0.66 2.64 1.32 4 2 C4 2.99 4 3.98 4 5 C2.68 5.33 1.36 5.66 0 6 C-0.38218767 4.34385343 -0.71395102 2.67542976 -1 1 C-0.67 0.67 -0.34 0.34 0 0 Z " fill="#AC6536" transform="translate(298,88)"/>
<path d="M0 0 C-1.5625 1.5625 -1.5625 1.5625 -4 3 C-7.75 2.6875 -7.75 2.6875 -11 2 C-11 1.67 -11 1.34 -11 1 C-9.5437328 0.63743142 -8.08488815 0.28520207 -6.625 -0.0625 C-5.40683594 -0.35833984 -5.40683594 -0.35833984 -4.1640625 -0.66015625 C-2 -1 -2 -1 0 0 Z " fill="#F9E6D5" transform="translate(215,279)"/>
<path d="M0 0 C4.455 2.97 4.455 2.97 9 6 C8.01 6.33 7.02 6.66 6 7 C2.8125 4.6875 2.8125 4.6875 0 2 C0 1.34 0 0.68 0 0 Z " fill="#FEF2DD" transform="translate(105,256)"/>
<path d="M0 0 C3.15133488 1.83827868 6.11964908 3.75972706 9 6 C8.67 6.66 8.34 7.32 8 8 C6.66102417 7.04956626 5.32894573 6.08940853 4 5.125 C3.2575 4.59132812 2.515 4.05765625 1.75 3.5078125 C1.1725 3.01023438 0.595 2.51265625 0 2 C0 1.34 0 0.68 0 0 Z " fill="#F5AF65" transform="translate(157,209)"/>
<path d="M0 0 C0.33 1.32 0.66 2.64 1 4 C-0.32 4 -1.64 4 -3 4 C-3.66 3.01 -4.32 2.02 -5 1 C-3.35 0.67 -1.7 0.34 0 0 Z " fill="#713A10" transform="translate(165,209)"/>
<path d="M0 0 C0.96706319 3.00864103 1.27677226 5.05360248 0 8 C-2.0625 9.25 -2.0625 9.25 -4 10 C-2.66666667 6.66666667 -1.33333333 3.33333333 0 0 Z " fill="#EEA967" transform="translate(204,203)"/>
<path d="M0 0 C3.3 0.33 6.6 0.66 10 1 C7 3 7 3 3.875 2.75 C2.92625 2.5025 1.9775 2.255 1 2 C0.67 1.34 0.34 0.68 0 0 Z " fill="#FFF2E0" transform="translate(150,280)"/>
<path d="M0 0 C0.66 0 1.32 0 2 0 C0.75023244 3.65316671 0.32901247 4.78065836 -3 7 C-2.25 2.25 -2.25 2.25 0 0 Z " fill="#A96940" transform="translate(301,145)"/>
<path d="M0 0 C0.66 0 1.32 0 2 0 C3.20272819 2.40545638 3.10071472 3.94996953 3.0625 6.625 C3.05347656 7.44226563 3.04445313 8.25953125 3.03515625 9.1015625 C3.02355469 9.72804688 3.01195312 10.35453125 3 11 C2.67 11 2.34 11 2 11 C1.34 7.37 0.68 3.74 0 0 Z " fill="#FCF0DD" transform="translate(309,101)"/>
<path d="M0 0 C-2.31 1.32 -4.62 2.64 -7 4 C-6.625 2.0625 -6.625 2.0625 -6 0 C-3.50907189 -1.24546405 -2.58919267 -0.7767578 0 0 Z " fill="#F8EBD8" transform="translate(67,84)"/>
<path d="M0 0 C-4.455 1.485 -4.455 1.485 -9 3 C-9.33 2.34 -9.66 1.68 -10 1 C-5.8922935 -0.58706842 -4.40767604 -1.10191901 0 0 Z " fill="#F9EAD9" transform="translate(255,83)"/>
</svg>
